<mxfile host="Electron" modified="2023-05-04T07:25:59.432Z" agent="Mozilla/5.0 (Windows NT 10.0; Win64; x64) AppleWebKit/537.36 (KHTML, like Gecko) draw.io/21.2.1 Chrome/112.0.5615.87 Electron/24.1.2 Safari/537.36" etag="_PYTY71pJqzdhs9W82Yj" version="21.2.1" type="device">
  <diagram name="Page-1" id="yzhOez-J-gjcgPz_JkEf">
    <mxGraphModel dx="1969" dy="2153" grid="1" gridSize="10" guides="1" tooltips="1" connect="1" arrows="0" fold="1" page="1" pageScale="1" pageWidth="827" pageHeight="1169" math="0" shadow="0">
      <root>
        <mxCell id="0" />
        <mxCell id="1" parent="0" />
        <mxCell id="OtvRLSTqSI0YJR0zDPqX-1" value="Theme" style="html=1;overflow=block;blockSpacing=1;whiteSpace=wrap;fontSize=16.7;fontColor=#333333;align=center;spacing=3.8;strokeColor=#5e5e5e;strokeOpacity=100;rounded=1;absoluteArcSize=1;arcSize=9;strokeWidth=2.3;lucidId=jejBH.42-18E;" parent="1" vertex="1">
          <mxGeometry x="680" y="-740" width="120" height="27" as="geometry" />
        </mxCell>
        <mxCell id="5" style="edgeStyle=orthogonalEdgeStyle;rounded=1;orthogonalLoop=1;jettySize=auto;html=1;exitX=1;exitY=0.5;exitDx=0;exitDy=0;entryX=0.5;entryY=0;entryDx=0;entryDy=0;endArrow=none;endFill=0;strokeColor=#5E5E5E;" parent="1" source="OtvRLSTqSI0YJR0zDPqX-2" target="2" edge="1">
          <mxGeometry relative="1" as="geometry" />
        </mxCell>
        <mxCell id="OtvRLSTqSI0YJR0zDPqX-2" value="-nameTheme" style="html=1;overflow=block;blockSpacing=1;whiteSpace=wrap;fontSize=16.7;fontColor=#333333;fontStyle=4;align=left;spacing=3.8;verticalAlign=middle;strokeColor=#5e5e5e;strokeOpacity=100;rounded=1;absoluteArcSize=1;arcSize=9;strokeWidth=2.3;lucidId=jejBxBTFkY.N;" parent="1" vertex="1">
          <mxGeometry x="680" y="-713" width="120" height="56" as="geometry" />
        </mxCell>
        <mxCell id="6" style="edgeStyle=orthogonalEdgeStyle;rounded=1;orthogonalLoop=1;jettySize=auto;html=1;exitX=0.75;exitY=0;exitDx=0;exitDy=0;entryX=0.5;entryY=1;entryDx=0;entryDy=0;endArrow=none;endFill=0;strokeColor=#5E5E5E;" parent="1" source="OtvRLSTqSI0YJR0zDPqX-4" target="2" edge="1">
          <mxGeometry relative="1" as="geometry" />
        </mxCell>
        <mxCell id="OtvRLSTqSI0YJR0zDPqX-4" value="Content" style="html=1;overflow=block;blockSpacing=1;whiteSpace=wrap;fontSize=16.7;fontColor=#333333;align=center;spacing=3.8;strokeColor=#5e5e5e;strokeOpacity=100;rounded=1;absoluteArcSize=1;arcSize=9;strokeWidth=2.3;lucidId=NejBDIy_1vik;" parent="1" vertex="1">
          <mxGeometry x="653" y="-241" width="210" height="27" as="geometry" />
        </mxCell>
        <mxCell id="BRtx1PrN9E1ml90FHvNf-51" style="edgeStyle=orthogonalEdgeStyle;rounded=1;orthogonalLoop=1;jettySize=auto;html=1;entryX=0.5;entryY=1;entryDx=0;entryDy=0;strokeColor=#5E5E5E;strokeWidth=1.5;endArrow=none;endFill=0;exitX=1.008;exitY=0.142;exitDx=0;exitDy=0;exitPerimeter=0;" parent="1" source="OtvRLSTqSI0YJR0zDPqX-5" target="BRtx1PrN9E1ml90FHvNf-42" edge="1">
          <mxGeometry relative="1" as="geometry">
            <mxPoint x="883" y="-196" as="sourcePoint" />
            <Array as="points">
              <mxPoint x="865" y="-196" />
              <mxPoint x="1080" y="-196" />
              <mxPoint x="1080" y="-420" />
            </Array>
          </mxGeometry>
        </mxCell>
        <mxCell id="OtvRLSTqSI0YJR0zDPqX-5" value="&lt;div style=&quot;display: flex; justify-content: flex-start; text-align: left; align-items: baseline; font-size: 0; line-height: 1.25;margin-top: -2px;&quot;&gt;&lt;span&gt;&lt;span style=&quot;font-size:16.7px;color:#333333;text-decoration: underline;&quot;&gt;-ref&lt;/span&gt;&lt;span style=&quot;font-size:16.7px;color:#333333;&quot;&gt;&lt;br&gt;&lt;/span&gt;&lt;/span&gt;&lt;/div&gt;&lt;div style=&quot;display: flex; justify-content: flex-start; text-align: left; align-items: baseline; line-height: 1.25; margin-top: -2px;&quot;&gt;&lt;span style=&quot;font-size: 0px;&quot;&gt;&lt;span style=&quot;font-size:16.7px;color:#333333;&quot;&gt;&lt;span style=&quot;font-size:16.7px;color:#333333;&quot;&gt;&lt;br&gt;&lt;/span&gt;&lt;/span&gt;&lt;/span&gt;&lt;span style=&quot;font-size: 0px;&quot;&gt;&lt;span style=&quot;font-size:16.7px;color:#333333;&quot;&gt;&lt;span style=&quot;font-size:16.7px;color:#333333;&quot;&gt;-description&lt;br&gt;&lt;/span&gt;&lt;/span&gt;&lt;/span&gt;&lt;span style=&quot;font-size: 0px;&quot;&gt;&lt;span style=&quot;font-size:16.7px;color:#333333;&quot;&gt;&lt;span style=&quot;font-size:16.7px;color:#333333;&quot;&gt;&lt;br&gt;&lt;/span&gt;&lt;/span&gt;&lt;/span&gt;&lt;span style=&quot;font-size: 0px;&quot;&gt;&lt;span style=&quot;font-size:16.7px;color:#333333;&quot;&gt;&lt;span style=&quot;font-size:16.7px;color:#333333;&quot;&gt;&lt;br&gt;&lt;/span&gt;&lt;/span&gt;&lt;/span&gt;&lt;span style=&quot;font-size: 0px;&quot;&gt;&lt;span style=&quot;font-size:16.7px;color:#333333;&quot;&gt;&lt;span style=&quot;font-size:16.7px;color:#333333;&quot;&gt;&lt;br&gt;&lt;/span&gt;&lt;/span&gt;&lt;/span&gt;&lt;span style=&quot;font-size: 0px;&quot;&gt;&lt;br&gt;&lt;br&gt;&lt;/span&gt;&lt;span style=&quot;font-size: 0px;&quot;&gt;aa&lt;/span&gt;&lt;font color=&quot;#333333&quot;&gt;&lt;br&gt;&lt;/font&gt;&lt;span style=&quot;font-size: 0px;&quot;&gt;&lt;span style=&quot;font-size:16.7px;color:#333333;&quot;&gt;&lt;span style=&quot;font-size:16.7px;color:#333333;&quot;&gt;&lt;br&gt;&lt;/span&gt;&lt;/span&gt;&lt;/span&gt;&lt;span style=&quot;font-size: 0px;&quot;&gt;&lt;span style=&quot;font-size:16.7px;color:#333333;&quot;&gt;&lt;span style=&quot;font-size:16.7px;color:#333333;&quot;&gt;&lt;br&gt;&lt;/span&gt;&lt;/span&gt;&lt;/span&gt;&lt;span style=&quot;font-size: 0px;&quot;&gt;&lt;br&gt;&lt;/span&gt;&lt;font color=&quot;#333333&quot;&gt;&lt;span style=&quot;font-size: 16.7px;&quot;&gt;&lt;br&gt;&lt;/span&gt;&lt;/font&gt;&lt;font color=&quot;#333333&quot;&gt;&lt;span style=&quot;font-size: 16.7px;&quot;&gt;&lt;br&gt;&lt;/span&gt;&lt;/font&gt;&lt;br&gt;&lt;/div&gt;&lt;div style=&quot;display: flex; justify-content: flex-start; text-align: left; align-items: baseline; font-size: 0; line-height: 1.25;margin-top: -2px;&quot;&gt;&lt;span&gt;&lt;span style=&quot;font-size:16.7px;color:#333333;&quot;&gt;-duration&lt;br&gt;-link&lt;br&gt;&lt;/span&gt;&lt;/span&gt;&lt;/div&gt;&lt;div style=&quot;display: flex; justify-content: flex-start; text-align: left; align-items: baseline; font-size: 0; line-height: 1.25;margin-top: -2px;&quot;&gt;&lt;span&gt;&lt;span style=&quot;font-size:16.7px;color:#333333;&quot;&gt;-rating&lt;br&gt;&lt;/span&gt;&lt;/span&gt;&lt;/div&gt;&lt;div style=&quot;display: flex; justify-content: flex-start; text-align: left; align-items: baseline; font-size: 0; line-height: 1.25;margin-top: -2px;&quot;&gt;&lt;span&gt;&lt;span style=&quot;font-size:16.7px;color:#333333;&quot;&gt;-country&lt;br&gt;&lt;/span&gt;&lt;/span&gt;&lt;/div&gt;&lt;div style=&quot;display: flex; justify-content: flex-start; align-items: baseline; line-height: 1.25; margin-top: -2px;&quot;&gt;&lt;span style=&quot;font-size: 0px;&quot;&gt;&lt;span style=&quot;font-size:16.7px;color:#333333;&quot;&gt;-year&lt;/span&gt;&lt;/span&gt;&lt;span style=&quot;font-size: 0px;&quot;&gt;&lt;span style=&quot;font-size:16.7px;color:#333333;&quot;&gt;&lt;br&gt;&lt;/span&gt;&lt;/span&gt;&lt;font color=&quot;#333333&quot;&gt;&lt;span style=&quot;font-size: 16.7px;&quot;&gt;&lt;div style=&quot;text-align: left;&quot;&gt;&lt;br&gt;&lt;/div&gt;&lt;/span&gt;&lt;/font&gt;&lt;/div&gt;" style="html=1;overflow=block;blockSpacing=1;whiteSpace=wrap;fontSize=13;spacing=3.8;verticalAlign=middle;strokeColor=#5e5e5e;strokeOpacity=100;rounded=1;absoluteArcSize=1;arcSize=9;strokeWidth=2.3;lucidId=NejBXfe0f9c7;" parent="1" vertex="1">
          <mxGeometry x="653" y="-214" width="210" height="144" as="geometry" />
        </mxCell>
        <mxCell id="OtvRLSTqSI0YJR0zDPqX-11" value="Directed" style="html=1;overflow=block;blockSpacing=1;whiteSpace=wrap;rounded=1;arcSize=50;fontSize=16.7;fontColor=#333333;align=center;spacing=3.8;strokeColor=#5e5e5e;strokeOpacity=100;strokeWidth=2.3;lucidId=ChjB5QPBFmKb;" parent="1" vertex="1">
          <mxGeometry x="180" y="-372" width="120" height="60" as="geometry" />
        </mxCell>
        <mxCell id="OtvRLSTqSI0YJR0zDPqX-12" value="" style="html=1;jettySize=18;whiteSpace=wrap;fontSize=13;strokeColor=#5E5E5E;strokeWidth=1.5;rounded=1;arcSize=12;edgeStyle=orthogonalEdgeStyle;startArrow=none;endArrow=none;exitX=0.996;exitY=0.139;entryX=0;entryY=0.5;lucidId=yijBLoybgWSp;exitDx=0;exitDy=0;entryDx=0;entryDy=0;exitPerimeter=0;" parent="1" source="BRtx1PrN9E1ml90FHvNf-89" target="OtvRLSTqSI0YJR0zDPqX-11" edge="1">
          <mxGeometry width="100" height="100" relative="1" as="geometry">
            <Array as="points">
              <mxPoint x="140" y="-272" />
              <mxPoint x="140" y="-342" />
            </Array>
            <mxPoint x="20" y="-371" as="sourcePoint" />
          </mxGeometry>
        </mxCell>
        <mxCell id="OtvRLSTqSI0YJR0zDPqX-14" value="" style="html=1;jettySize=18;whiteSpace=wrap;fontSize=13;strokeColor=#5E5E5E;strokeWidth=1.5;rounded=1;arcSize=12;edgeStyle=orthogonalEdgeStyle;startArrow=none;endArrow=none;exitX=1;exitY=0.5;entryX=-0.006;entryY=0.386;lucidId=HijBQt0Iui5a;exitDx=0;exitDy=0;entryDx=0;entryDy=0;entryPerimeter=0;" parent="1" source="OtvRLSTqSI0YJR0zDPqX-11" target="OtvRLSTqSI0YJR0zDPqX-5" edge="1">
          <mxGeometry width="100" height="100" relative="1" as="geometry">
            <Array as="points">
              <mxPoint x="440" y="-342" />
              <mxPoint x="440" y="-166" />
              <mxPoint x="652" y="-166" />
            </Array>
          </mxGeometry>
        </mxCell>
        <mxCell id="OtvRLSTqSI0YJR0zDPqX-15" value="0, n" style="text;html=1;resizable=0;labelBackgroundColor=default;align=center;verticalAlign=middle;fontStyle=1;fontColor=#333333;fontSize=13.3;" parent="OtvRLSTqSI0YJR0zDPqX-14" vertex="1">
          <mxGeometry x="-0.20513793050197837" relative="1" as="geometry">
            <mxPoint x="-189" y="-36" as="offset" />
          </mxGeometry>
        </mxCell>
        <mxCell id="OtvRLSTqSI0YJR0zDPqX-18" value="Has a main theme" style="html=1;overflow=block;blockSpacing=1;whiteSpace=wrap;rounded=1;arcSize=50;fontSize=16.7;fontColor=#333333;align=center;spacing=3.8;strokeColor=#5e5e5e;strokeOpacity=100;strokeWidth=2.3;lucidId=xojB8fOaAYHN;" parent="1" vertex="1">
          <mxGeometry x="680" y="-615" width="120" height="60" as="geometry" />
        </mxCell>
        <mxCell id="OtvRLSTqSI0YJR0zDPqX-19" value="" style="html=1;jettySize=18;whiteSpace=wrap;fontSize=13;strokeColor=#5E5E5E;strokeWidth=1.5;rounded=1;arcSize=12;edgeStyle=orthogonalEdgeStyle;startArrow=none;endArrow=none;exitX=0.5;exitY=1;lucidId=SojBJwaM~PbR;exitDx=0;exitDy=0;entryX=0.397;entryY=-0.046;entryDx=0;entryDy=0;entryPerimeter=0;" parent="1" source="OtvRLSTqSI0YJR0zDPqX-18" target="OtvRLSTqSI0YJR0zDPqX-4" edge="1">
          <mxGeometry width="100" height="100" relative="1" as="geometry">
            <Array as="points">
              <mxPoint x="740" y="-242" />
            </Array>
            <mxPoint x="813" y="-246" as="targetPoint" />
          </mxGeometry>
        </mxCell>
        <mxCell id="OtvRLSTqSI0YJR0zDPqX-20" value="1, 1" style="text;html=1;resizable=0;labelBackgroundColor=default;align=center;verticalAlign=middle;fontStyle=1;fontColor=#333333;fontSize=13.3;" parent="OtvRLSTqSI0YJR0zDPqX-19" vertex="1">
          <mxGeometry x="-0.8263019638506032" relative="1" as="geometry">
            <mxPoint x="18" y="-16" as="offset" />
          </mxGeometry>
        </mxCell>
        <mxCell id="OtvRLSTqSI0YJR0zDPqX-21" value="" style="html=1;jettySize=18;whiteSpace=wrap;fontSize=13;strokeColor=#5E5E5E;strokeWidth=1.5;rounded=1;arcSize=12;edgeStyle=orthogonalEdgeStyle;startArrow=none;endArrow=none;exitX=0.5;exitY=1;entryX=0.5;entryY=0;lucidId=1ojBVqLJjaBZ;entryDx=0;entryDy=0;exitDx=0;exitDy=0;" parent="1" source="OtvRLSTqSI0YJR0zDPqX-2" target="OtvRLSTqSI0YJR0zDPqX-18" edge="1">
          <mxGeometry width="100" height="100" relative="1" as="geometry">
            <Array as="points" />
          </mxGeometry>
        </mxCell>
        <mxCell id="OtvRLSTqSI0YJR0zDPqX-22" value="0 , n" style="text;html=1;resizable=0;labelBackgroundColor=default;align=center;verticalAlign=middle;fontStyle=1;fontColor=#333333;fontSize=13.3;" parent="OtvRLSTqSI0YJR0zDPqX-21" vertex="1">
          <mxGeometry relative="1" as="geometry">
            <mxPoint x="20" y="6" as="offset" />
          </mxGeometry>
        </mxCell>
        <mxCell id="OtvRLSTqSI0YJR0zDPqX-23" value="Played in" style="html=1;overflow=block;blockSpacing=1;whiteSpace=wrap;rounded=1;arcSize=50;fontSize=16.7;fontColor=#333333;align=center;spacing=3.8;strokeColor=#5e5e5e;strokeOpacity=100;strokeWidth=2.3;lucidId=FqjBGdys.Dre;" parent="1" vertex="1">
          <mxGeometry x="179.9999999999999" y="28" width="120" height="60" as="geometry" />
        </mxCell>
        <mxCell id="OtvRLSTqSI0YJR0zDPqX-24" value="Scripted" style="html=1;overflow=block;blockSpacing=1;whiteSpace=wrap;rounded=1;arcSize=50;fontSize=16.7;fontColor=#333333;align=center;spacing=3.8;strokeColor=#5e5e5e;strokeOpacity=100;strokeWidth=2.3;lucidId=LqjBLhuiTjXW;" parent="1" vertex="1">
          <mxGeometry x="180" y="-272" width="120" height="60" as="geometry" />
        </mxCell>
        <mxCell id="OtvRLSTqSI0YJR0zDPqX-25" value="" style="html=1;jettySize=18;whiteSpace=wrap;fontSize=13;strokeColor=#5E5E5E;strokeWidth=1.5;rounded=1;arcSize=12;edgeStyle=orthogonalEdgeStyle;startArrow=none;endArrow=none;exitX=1;exitY=0.25;entryX=0;entryY=0.5;lucidId=ZqjBr8YlqV.C;exitDx=0;exitDy=0;entryDx=0;entryDy=0;" parent="1" source="BRtx1PrN9E1ml90FHvNf-89" target="OtvRLSTqSI0YJR0zDPqX-24" edge="1">
          <mxGeometry width="100" height="100" relative="1" as="geometry">
            <Array as="points">
              <mxPoint x="140" y="-261" />
              <mxPoint x="140" y="-242" />
            </Array>
            <mxPoint x="20" y="-240.99999999999955" as="sourcePoint" />
          </mxGeometry>
        </mxCell>
        <mxCell id="OtvRLSTqSI0YJR0zDPqX-26" value="0, n" style="text;html=1;resizable=0;labelBackgroundColor=default;align=center;verticalAlign=middle;fontStyle=1;fontColor=#333333;fontSize=13.3;" parent="OtvRLSTqSI0YJR0zDPqX-25" vertex="1">
          <mxGeometry x="0.19607921953017127" relative="1" as="geometry">
            <mxPoint x="53" y="72" as="offset" />
          </mxGeometry>
        </mxCell>
        <mxCell id="OtvRLSTqSI0YJR0zDPqX-27" value="" style="html=1;jettySize=18;whiteSpace=wrap;fontSize=13;strokeColor=#5E5E5E;strokeWidth=1.5;rounded=1;arcSize=12;edgeStyle=orthogonalEdgeStyle;startArrow=none;endArrow=none;exitX=1.002;exitY=0.901;entryX=0;entryY=0.5;lucidId=2qjBmUkvBCma;entryDx=0;entryDy=0;exitDx=0;exitDy=0;exitPerimeter=0;" parent="1" source="BRtx1PrN9E1ml90FHvNf-89" target="OtvRLSTqSI0YJR0zDPqX-23" edge="1">
          <mxGeometry width="100" height="100" relative="1" as="geometry">
            <Array as="points">
              <mxPoint x="-110" y="-199" />
              <mxPoint x="-110" y="-196" />
              <mxPoint x="100" y="-196" />
              <mxPoint x="100" y="58" />
            </Array>
            <mxPoint x="317.3699999999999" y="295.6039999999998" as="sourcePoint" />
          </mxGeometry>
        </mxCell>
        <mxCell id="OtvRLSTqSI0YJR0zDPqX-28" value="0, n" style="text;html=1;resizable=0;labelBackgroundColor=default;align=center;verticalAlign=middle;fontStyle=1;fontColor=#333333;fontSize=13.3;" parent="OtvRLSTqSI0YJR0zDPqX-27" vertex="1">
          <mxGeometry x="0.24836674996723374" relative="1" as="geometry">
            <mxPoint x="60" y="46" as="offset" />
          </mxGeometry>
        </mxCell>
        <mxCell id="OtvRLSTqSI0YJR0zDPqX-29" value="" style="html=1;jettySize=18;whiteSpace=wrap;fontSize=13;strokeColor=#5E5E5E;strokeWidth=1.5;rounded=1;arcSize=12;edgeStyle=orthogonalEdgeStyle;startArrow=none;endArrow=none;exitX=1;exitY=0.5;entryX=-0.005;entryY=0.443;lucidId=_qjBDqwcsFOo;exitDx=0;exitDy=0;entryDx=0;entryDy=0;entryPerimeter=0;" parent="1" source="OtvRLSTqSI0YJR0zDPqX-24" target="OtvRLSTqSI0YJR0zDPqX-5" edge="1">
          <mxGeometry width="100" height="100" relative="1" as="geometry">
            <Array as="points">
              <mxPoint x="300" y="-236" />
              <mxPoint x="420" y="-236" />
              <mxPoint x="420" y="-156" />
              <mxPoint x="652" y="-156" />
            </Array>
          </mxGeometry>
        </mxCell>
        <mxCell id="OtvRLSTqSI0YJR0zDPqX-30" value="0, n" style="text;html=1;resizable=0;labelBackgroundColor=default;align=center;verticalAlign=middle;fontStyle=1;fontColor=#333333;fontSize=13.3;" parent="OtvRLSTqSI0YJR0zDPqX-29" vertex="1">
          <mxGeometry x="-0.8185512531711556" relative="1" as="geometry">
            <mxPoint x="-14" y="-14" as="offset" />
          </mxGeometry>
        </mxCell>
        <mxCell id="OtvRLSTqSI0YJR0zDPqX-122" style="edgeStyle=elbowEdgeStyle;rounded=1;orthogonalLoop=1;jettySize=auto;html=1;exitX=0;exitY=0;exitDx=0;exitDy=0;strokeColor=#5e5e5e;strokeWidth=1.5;fontSize=14;endArrow=none;endFill=0;" parent="OtvRLSTqSI0YJR0zDPqX-29" source="OtvRLSTqSI0YJR0zDPqX-30" target="OtvRLSTqSI0YJR0zDPqX-30" edge="1">
          <mxGeometry relative="1" as="geometry" />
        </mxCell>
        <mxCell id="OtvRLSTqSI0YJR0zDPqX-33" value="Classficiation" style="html=1;overflow=block;blockSpacing=1;whiteSpace=wrap;fontSize=16.7;fontColor=#333333;align=center;spacing=3.8;strokeColor=#5e5e5e;strokeOpacity=100;rounded=1;absoluteArcSize=1;arcSize=9;strokeWidth=2.3;lucidId=esjB~5Ccd-we;" parent="1" vertex="1">
          <mxGeometry x="395" y="-740" width="160" height="27" as="geometry" />
        </mxCell>
        <mxCell id="OtvRLSTqSI0YJR0zDPqX-34" value="-nameClassification" style="html=1;overflow=block;blockSpacing=1;whiteSpace=wrap;fontSize=16.7;fontColor=#333333;fontStyle=4;align=left;spacing=3.8;verticalAlign=middle;strokeColor=#5e5e5e;strokeOpacity=100;rounded=1;absoluteArcSize=1;arcSize=9;strokeWidth=2.3;lucidId=esjBIlTkwPr8;" parent="1" vertex="1">
          <mxGeometry x="395" y="-713" width="160" height="56" as="geometry" />
        </mxCell>
        <mxCell id="OtvRLSTqSI0YJR0zDPqX-35" value="Has a classfication" style="html=1;overflow=block;blockSpacing=1;whiteSpace=wrap;rounded=1;arcSize=50;fontSize=16.7;fontColor=#333333;align=center;spacing=3.8;strokeColor=#5e5e5e;strokeOpacity=100;strokeWidth=2.3;lucidId=esjBECUk6~5J;" parent="1" vertex="1">
          <mxGeometry x="415" y="-615" width="120" height="60" as="geometry" />
        </mxCell>
        <mxCell id="OtvRLSTqSI0YJR0zDPqX-36" value="" style="html=1;jettySize=18;whiteSpace=wrap;fontSize=13;strokeColor=#5E5E5E;strokeWidth=1.5;rounded=1;arcSize=12;edgeStyle=orthogonalEdgeStyle;startArrow=none;endArrow=none;exitX=0.5;exitY=1;entryX=0.111;entryY=-0.046;entryPerimeter=0;lucidId=esjBC1PlI_qc;exitDx=0;exitDy=0;entryDx=0;entryDy=0;" parent="1" source="OtvRLSTqSI0YJR0zDPqX-35" target="OtvRLSTqSI0YJR0zDPqX-4" edge="1">
          <mxGeometry width="100" height="100" relative="1" as="geometry">
            <Array as="points">
              <mxPoint x="475" y="-456" />
              <mxPoint x="680" y="-456" />
              <mxPoint x="680" y="-242" />
            </Array>
          </mxGeometry>
        </mxCell>
        <mxCell id="OtvRLSTqSI0YJR0zDPqX-82" value="1, 1" style="text;html=1;resizable=0;labelBackgroundColor=default;align=center;verticalAlign=middle;fontStyle=1;fontColor=#333333;fontSize=13.3;" parent="OtvRLSTqSI0YJR0zDPqX-36" vertex="1">
          <mxGeometry x="-0.8158151385261603" relative="1" as="geometry">
            <mxPoint x="15" y="-37" as="offset" />
          </mxGeometry>
        </mxCell>
        <mxCell id="OtvRLSTqSI0YJR0zDPqX-38" value="" style="html=1;jettySize=18;whiteSpace=wrap;fontSize=13;strokeColor=#5E5E5E;strokeWidth=1.5;rounded=1;arcSize=12;edgeStyle=orthogonalEdgeStyle;startArrow=none;endArrow=none;exitX=0.5;exitY=1;entryX=0.5;entryY=0;lucidId=esjBZ3NB9nTm;exitDx=0;exitDy=0;entryDx=0;entryDy=0;" parent="1" source="OtvRLSTqSI0YJR0zDPqX-34" target="OtvRLSTqSI0YJR0zDPqX-35" edge="1">
          <mxGeometry width="100" height="100" relative="1" as="geometry">
            <Array as="points" />
          </mxGeometry>
        </mxCell>
        <mxCell id="OtvRLSTqSI0YJR0zDPqX-39" value="0 , n" style="text;html=1;resizable=0;labelBackgroundColor=default;align=center;verticalAlign=middle;fontStyle=1;fontColor=#333333;fontSize=13.3;" parent="OtvRLSTqSI0YJR0zDPqX-38" vertex="1">
          <mxGeometry relative="1" as="geometry">
            <mxPoint x="25" y="6" as="offset" />
          </mxGeometry>
        </mxCell>
        <mxCell id="OtvRLSTqSI0YJR0zDPqX-56" value="" style="html=1;jettySize=18;whiteSpace=wrap;fontSize=13;strokeColor=#5E5E5E;strokeWidth=1.5;rounded=1;arcSize=12;edgeStyle=orthogonalEdgeStyle;startArrow=none;endArrow=none;exitX=1;exitY=0.5;entryX=0.002;entryY=0.858;lucidId=hBjB2dj1gplf;entryDx=0;entryDy=0;entryPerimeter=0;exitDx=0;exitDy=0;" parent="1" source="OtvRLSTqSI0YJR0zDPqX-23" target="OtvRLSTqSI0YJR0zDPqX-5" edge="1">
          <mxGeometry width="100" height="100" relative="1" as="geometry">
            <Array as="points">
              <mxPoint x="413" y="64" />
              <mxPoint x="413" y="-104" />
            </Array>
          </mxGeometry>
        </mxCell>
        <mxCell id="OtvRLSTqSI0YJR0zDPqX-108" style="edgeStyle=elbowEdgeStyle;rounded=1;orthogonalLoop=1;jettySize=auto;html=1;exitX=1;exitY=0.5;exitDx=0;exitDy=0;entryX=0;entryY=0.5;entryDx=0;entryDy=0;strokeColor=#5e5e5e;strokeWidth=1.5;fontSize=14;endArrow=none;endFill=0;" parent="1" source="BRtx1PrN9E1ml90FHvNf-89" target="OtvRLSTqSI0YJR0zDPqX-64" edge="1">
          <mxGeometry relative="1" as="geometry">
            <mxPoint x="-163" y="-170.99999999999955" as="sourcePoint" />
            <Array as="points">
              <mxPoint x="140" y="-200" />
            </Array>
          </mxGeometry>
        </mxCell>
        <mxCell id="OtvRLSTqSI0YJR0zDPqX-64" value="Composed" style="html=1;overflow=block;blockSpacing=1;whiteSpace=wrap;rounded=1;arcSize=50;fontSize=16.7;fontColor=#333333;align=center;spacing=3.8;strokeColor=#5e5e5e;strokeOpacity=100;strokeWidth=2.3;lucidId=9DjBeM9wwp~a;" parent="1" vertex="1">
          <mxGeometry x="180" y="-201" width="120" height="60" as="geometry" />
        </mxCell>
        <mxCell id="OtvRLSTqSI0YJR0zDPqX-67" value="" style="html=1;jettySize=18;whiteSpace=wrap;fontSize=13;strokeColor=#5E5E5E;strokeWidth=1.5;rounded=1;arcSize=12;edgeStyle=orthogonalEdgeStyle;startArrow=none;endArrow=none;exitX=1;exitY=0.5;lucidId=zEjBB7QVhMc1;exitDx=0;exitDy=0;entryX=0;entryY=0.5;entryDx=0;entryDy=0;" parent="1" source="OtvRLSTqSI0YJR0zDPqX-64" target="OtvRLSTqSI0YJR0zDPqX-5" edge="1">
          <mxGeometry width="100" height="100" relative="1" as="geometry">
            <Array as="points">
              <mxPoint x="300" y="-170" />
              <mxPoint x="410" y="-170" />
              <mxPoint x="410" y="-142" />
            </Array>
            <mxPoint x="1038" y="322.5" as="targetPoint" />
          </mxGeometry>
        </mxCell>
        <mxCell id="OtvRLSTqSI0YJR0zDPqX-68" value="0, n" style="text;html=1;resizable=0;labelBackgroundColor=default;align=center;verticalAlign=middle;fontStyle=1;fontColor=#333333;fontSize=13.3;" parent="OtvRLSTqSI0YJR0zDPqX-67" vertex="1">
          <mxGeometry x="-0.9686881935611182" relative="1" as="geometry">
            <mxPoint x="11" y="-16" as="offset" />
          </mxGeometry>
        </mxCell>
        <mxCell id="OtvRLSTqSI0YJR0zDPqX-102" style="edgeStyle=elbowEdgeStyle;rounded=1;orthogonalLoop=1;jettySize=auto;html=1;entryX=-0.009;entryY=0.566;entryDx=0;entryDy=0;strokeColor=#5e5e5e;strokeWidth=1.5;fontSize=14;endArrow=none;endFill=0;entryPerimeter=0;exitX=1;exitY=0.5;exitDx=0;exitDy=0;" parent="1" source="OtvRLSTqSI0YJR0zDPqX-74" target="OtvRLSTqSI0YJR0zDPqX-5" edge="1">
          <mxGeometry relative="1" as="geometry">
            <Array as="points">
              <mxPoint x="380" y="-110" />
              <mxPoint x="1293" y="384" />
            </Array>
          </mxGeometry>
        </mxCell>
        <mxCell id="OtvRLSTqSI0YJR0zDPqX-74" value="Staged" style="html=1;overflow=block;blockSpacing=1;whiteSpace=wrap;rounded=1;arcSize=50;fontSize=16.7;fontColor=#333333;align=center;spacing=3.8;strokeColor=#5e5e5e;strokeOpacity=100;strokeWidth=2.3;lucidId=sFjBx3ZSnAQh;" parent="1" vertex="1">
          <mxGeometry x="180" y="-132" width="120" height="60" as="geometry" />
        </mxCell>
        <mxCell id="OtvRLSTqSI0YJR0zDPqX-75" value="" style="html=1;jettySize=18;whiteSpace=wrap;fontSize=13;strokeColor=#5E5E5E;strokeWidth=1.5;rounded=1;arcSize=12;edgeStyle=orthogonalEdgeStyle;startArrow=none;endArrow=none;entryX=0;entryY=0.5;lucidId=sFjBRPKOKJ_d;entryDx=0;entryDy=0;exitX=1;exitY=0.75;exitDx=0;exitDy=0;" parent="1" source="BRtx1PrN9E1ml90FHvNf-89" target="OtvRLSTqSI0YJR0zDPqX-74" edge="1">
          <mxGeometry width="100" height="100" relative="1" as="geometry">
            <Array as="points">
              <mxPoint x="60" y="-213" />
              <mxPoint x="130" y="-213" />
              <mxPoint x="130" y="-102" />
            </Array>
            <mxPoint x="-155" y="-41.86999999999989" as="sourcePoint" />
          </mxGeometry>
        </mxCell>
        <mxCell id="OtvRLSTqSI0YJR0zDPqX-76" value="0, n" style="text;html=1;resizable=0;labelBackgroundColor=default;align=center;verticalAlign=middle;fontStyle=1;fontColor=#333333;fontSize=13.3;" parent="OtvRLSTqSI0YJR0zDPqX-75" vertex="1">
          <mxGeometry x="0.24836674996723374" relative="1" as="geometry">
            <mxPoint x="186" y="-12" as="offset" />
          </mxGeometry>
        </mxCell>
        <mxCell id="OtvRLSTqSI0YJR0zDPqX-96" style="edgeStyle=orthogonalEdgeStyle;rounded=1;orthogonalLoop=1;jettySize=auto;html=1;exitX=1;exitY=0.5;exitDx=0;exitDy=0;fontSize=14;endArrow=none;endFill=0;strokeWidth=1.5;strokeColor=#5e5e5e;" parent="1" source="OtvRLSTqSI0YJR0zDPqX-78" edge="1">
          <mxGeometry relative="1" as="geometry">
            <mxPoint x="653" y="-118" as="targetPoint" />
            <Array as="points">
              <mxPoint x="300" y="-26" />
              <mxPoint x="390" y="-26" />
              <mxPoint x="390" y="-118" />
            </Array>
          </mxGeometry>
        </mxCell>
        <mxCell id="OtvRLSTqSI0YJR0zDPqX-78" value="Interpreted" style="html=1;overflow=block;blockSpacing=1;whiteSpace=wrap;rounded=1;arcSize=50;fontSize=16.7;fontColor=#333333;align=center;spacing=3.8;strokeColor=#5e5e5e;strokeOpacity=100;strokeWidth=2.3;lucidId=vFjBN382D4NY;" parent="1" vertex="1">
          <mxGeometry x="180" y="-62" width="120" height="60" as="geometry" />
        </mxCell>
        <mxCell id="OtvRLSTqSI0YJR0zDPqX-92" value="" style="html=1;jettySize=18;whiteSpace=wrap;fontSize=13;strokeColor=#5E5E5E;strokeWidth=1.5;rounded=1;arcSize=12;edgeStyle=orthogonalEdgeStyle;startArrow=none;endArrow=none;lucidId=sFjBRPKOKJ_d;exitX=1.005;exitY=0.848;exitDx=0;exitDy=0;entryX=0;entryY=0.5;entryDx=0;entryDy=0;exitPerimeter=0;" parent="1" source="BRtx1PrN9E1ml90FHvNf-89" target="OtvRLSTqSI0YJR0zDPqX-78" edge="1">
          <mxGeometry width="100" height="100" relative="1" as="geometry">
            <Array as="points">
              <mxPoint x="110" y="-204" />
              <mxPoint x="110" y="-32" />
            </Array>
            <mxPoint x="180" y="107" as="sourcePoint" />
            <mxPoint x="320" y="87" as="targetPoint" />
          </mxGeometry>
        </mxCell>
        <mxCell id="OtvRLSTqSI0YJR0zDPqX-93" value="0, n" style="text;html=1;resizable=0;labelBackgroundColor=default;align=center;verticalAlign=middle;fontStyle=1;fontColor=#333333;fontSize=13.3;" parent="OtvRLSTqSI0YJR0zDPqX-92" vertex="1">
          <mxGeometry x="0.24836674996723374" relative="1" as="geometry">
            <mxPoint x="215" y="-14" as="offset" />
          </mxGeometry>
        </mxCell>
        <mxCell id="BRtx1PrN9E1ml90FHvNf-55" style="edgeStyle=orthogonalEdgeStyle;rounded=1;orthogonalLoop=1;jettySize=auto;html=1;exitX=1.001;exitY=0.448;exitDx=0;exitDy=0;strokeColor=#5E5E5E;strokeWidth=1.5;endArrow=none;endFill=0;entryX=0;entryY=0.5;entryDx=0;entryDy=0;exitPerimeter=0;" parent="1" source="BRtx1PrN9E1ml90FHvNf-2" target="BRtx1PrN9E1ml90FHvNf-56" edge="1">
          <mxGeometry relative="1" as="geometry">
            <mxPoint x="1940" y="-253" as="targetPoint" />
            <Array as="points">
              <mxPoint x="1850" y="-83" />
            </Array>
          </mxGeometry>
        </mxCell>
        <mxCell id="BRtx1PrN9E1ml90FHvNf-83" style="edgeStyle=orthogonalEdgeStyle;rounded=1;orthogonalLoop=1;jettySize=auto;html=1;exitX=0.5;exitY=0;exitDx=0;exitDy=0;entryX=0.5;entryY=1;entryDx=0;entryDy=0;strokeColor=#5E5E5E;strokeWidth=1.5;endArrow=none;endFill=0;" parent="1" source="BRtx1PrN9E1ml90FHvNf-1" target="BRtx1PrN9E1ml90FHvNf-82" edge="1">
          <mxGeometry relative="1" as="geometry" />
        </mxCell>
        <mxCell id="BRtx1PrN9E1ml90FHvNf-1" value="Account" style="html=1;overflow=block;blockSpacing=1;whiteSpace=wrap;fontSize=16.7;fontColor=#333333;align=center;spacing=3.8;strokeColor=#5e5e5e;strokeOpacity=100;rounded=1;absoluteArcSize=1;arcSize=9;strokeWidth=2.3;lucidId=NejBDIy_1vik;" parent="1" vertex="1">
          <mxGeometry x="1640" y="-175" width="210" height="27" as="geometry" />
        </mxCell>
        <mxCell id="BRtx1PrN9E1ml90FHvNf-2" value="&lt;div style=&quot;display: flex; justify-content: flex-start; text-align: left; align-items: baseline; font-size: 0; line-height: 1.25;margin-top: -2px;&quot;&gt;&lt;span&gt;&lt;span style=&quot;font-size:16.7px;color:#333333;text-decoration: underline;&quot;&gt;-id&lt;/span&gt;&lt;span style=&quot;font-size:16.7px;color:#333333;&quot;&gt;&lt;br&gt;&lt;/span&gt;&lt;/span&gt;&lt;/div&gt;&lt;div style=&quot;display: flex; justify-content: flex-start; text-align: left; align-items: baseline; font-size: 0; line-height: 1.25;margin-top: -2px;&quot;&gt;&lt;span&gt;&lt;span style=&quot;font-size:16.7px;color:#333333;&quot;&gt;&lt;span style=&quot;font-size:16.7px;color:#333333;&quot;&gt;-lname&lt;/span&gt;&lt;/span&gt;&lt;/span&gt;&lt;/div&gt;&lt;div style=&quot;display: flex; justify-content: flex-start; text-align: left; align-items: baseline; font-size: 0; line-height: 1.25;margin-top: -2px;&quot;&gt;&lt;span&gt;&lt;span style=&quot;font-size:16.7px;color:#333333;&quot;&gt;-fname&lt;br&gt;&lt;/span&gt;&lt;/span&gt;&lt;/div&gt;&lt;div style=&quot;display: flex; justify-content: flex-start; text-align: left; align-items: baseline; font-size: 0; line-height: 1.25;margin-top: -2px;&quot;&gt;&lt;span&gt;&lt;span style=&quot;font-size:16.7px;color:#333333;&quot;&gt;-email&lt;br&gt;-tel&lt;/span&gt;&lt;/span&gt;&lt;span&gt;&lt;br&gt;&lt;/span&gt;&lt;span&gt;&lt;br&gt;&lt;/span&gt;&lt;/div&gt;&lt;div style=&quot;display: flex; justify-content: flex-start; text-align: left; align-items: baseline; font-size: 0; line-height: 1.25;margin-top: -2px;&quot;&gt;&lt;span&gt;&lt;span style=&quot;font-size:16.7px;color:#333333;&quot;&gt;-password&lt;/span&gt;&lt;/span&gt;&lt;/div&gt;" style="html=1;overflow=block;blockSpacing=1;whiteSpace=wrap;fontSize=13;spacing=3.8;verticalAlign=middle;strokeColor=#5e5e5e;strokeOpacity=100;rounded=1;absoluteArcSize=1;arcSize=9;strokeWidth=2.3;lucidId=NejBXfe0f9c7;" parent="1" vertex="1">
          <mxGeometry x="1640" y="-148" width="210" height="148" as="geometry" />
        </mxCell>
        <mxCell id="BRtx1PrN9E1ml90FHvNf-12" style="edgeStyle=orthogonalEdgeStyle;rounded=1;orthogonalLoop=1;jettySize=auto;html=1;exitX=1;exitY=0.5;exitDx=0;exitDy=0;entryX=0.009;entryY=0.318;entryDx=0;entryDy=0;entryPerimeter=0;strokeColor=#5E5E5E;strokeWidth=1.5;endArrow=none;endFill=0;" parent="1" source="BRtx1PrN9E1ml90FHvNf-10" target="BRtx1PrN9E1ml90FHvNf-2" edge="1">
          <mxGeometry relative="1" as="geometry" />
        </mxCell>
        <mxCell id="BRtx1PrN9E1ml90FHvNf-52" style="edgeStyle=orthogonalEdgeStyle;rounded=1;orthogonalLoop=1;jettySize=auto;html=1;exitX=0;exitY=0.5;exitDx=0;exitDy=0;entryX=1;entryY=0.5;entryDx=0;entryDy=0;strokeColor=#5E5E5E;strokeWidth=1.5;endArrow=none;endFill=0;" parent="1" source="BRtx1PrN9E1ml90FHvNf-10" target="OtvRLSTqSI0YJR0zDPqX-5" edge="1">
          <mxGeometry relative="1" as="geometry">
            <Array as="points">
              <mxPoint x="1370" y="-150" />
              <mxPoint x="863" y="-150" />
            </Array>
          </mxGeometry>
        </mxCell>
        <mxCell id="BRtx1PrN9E1ml90FHvNf-10" value="Buy" style="html=1;overflow=block;blockSpacing=1;whiteSpace=wrap;rounded=1;arcSize=50;fontSize=16.7;fontColor=#333333;align=center;spacing=3.8;strokeColor=#5e5e5e;strokeOpacity=100;strokeWidth=2.3;lucidId=xojB8fOaAYHN;" parent="1" vertex="1">
          <mxGeometry x="1370" y="-177" width="120" height="60" as="geometry" />
        </mxCell>
        <mxCell id="BRtx1PrN9E1ml90FHvNf-13" style="edgeStyle=orthogonalEdgeStyle;rounded=1;orthogonalLoop=1;jettySize=auto;html=1;exitX=1;exitY=0.5;exitDx=0;exitDy=0;strokeColor=#5E5E5E;strokeWidth=1.5;endArrow=none;endFill=0;entryX=-0.014;entryY=0.916;entryDx=0;entryDy=0;entryPerimeter=0;" parent="1" source="BRtx1PrN9E1ml90FHvNf-11" target="BRtx1PrN9E1ml90FHvNf-2" edge="1">
          <mxGeometry relative="1" as="geometry">
            <mxPoint x="1620" y="7" as="targetPoint" />
            <Array as="points">
              <mxPoint x="1560" y="62" />
              <mxPoint x="1560" y="-12" />
            </Array>
          </mxGeometry>
        </mxCell>
        <mxCell id="BRtx1PrN9E1ml90FHvNf-53" style="edgeStyle=orthogonalEdgeStyle;rounded=1;orthogonalLoop=1;jettySize=auto;html=1;exitX=0;exitY=0.5;exitDx=0;exitDy=0;strokeColor=#5E5E5E;strokeWidth=1.5;endArrow=none;endFill=0;entryX=1;entryY=0.5;entryDx=0;entryDy=0;" parent="1" source="BRtx1PrN9E1ml90FHvNf-11" target="OtvRLSTqSI0YJR0zDPqX-5" edge="1">
          <mxGeometry relative="1" as="geometry">
            <mxPoint x="863" y="-146" as="targetPoint" />
            <Array as="points">
              <mxPoint x="1240" y="61" />
              <mxPoint x="1240" y="-150" />
              <mxPoint x="863" y="-150" />
            </Array>
          </mxGeometry>
        </mxCell>
        <mxCell id="BRtx1PrN9E1ml90FHvNf-11" value="Rent for a duration&lt;br&gt;------&lt;br&gt;endDate" style="html=1;overflow=block;blockSpacing=1;whiteSpace=wrap;rounded=1;arcSize=50;fontSize=16.7;fontColor=#333333;align=center;spacing=3.8;strokeColor=#5e5e5e;strokeOpacity=100;strokeWidth=2.3;lucidId=xojB8fOaAYHN;" parent="1" vertex="1">
          <mxGeometry x="1345" y="14" width="160" height="95" as="geometry" />
        </mxCell>
        <mxCell id="BRtx1PrN9E1ml90FHvNf-14" value="Format" style="html=1;overflow=block;blockSpacing=1;whiteSpace=wrap;fontSize=16.7;fontColor=#333333;align=center;spacing=3.8;strokeColor=#5e5e5e;strokeOpacity=100;rounded=1;absoluteArcSize=1;arcSize=9;strokeWidth=2.3;lucidId=jejBH.42-18E;" parent="1" vertex="1">
          <mxGeometry x="1025" y="-635" width="120" height="27" as="geometry" />
        </mxCell>
        <mxCell id="BRtx1PrN9E1ml90FHvNf-41" style="edgeStyle=orthogonalEdgeStyle;rounded=1;orthogonalLoop=1;jettySize=auto;html=1;exitX=0.5;exitY=1;exitDx=0;exitDy=0;strokeColor=#5E5E5E;strokeWidth=1.5;endArrow=none;endFill=0;entryX=0.5;entryY=0;entryDx=0;entryDy=0;" parent="1" source="BRtx1PrN9E1ml90FHvNf-15" target="BRtx1PrN9E1ml90FHvNf-42" edge="1">
          <mxGeometry relative="1" as="geometry">
            <mxPoint x="1165" y="-490" as="targetPoint" />
          </mxGeometry>
        </mxCell>
        <mxCell id="BRtx1PrN9E1ml90FHvNf-15" value="-nameFormat" style="html=1;overflow=block;blockSpacing=1;whiteSpace=wrap;fontSize=16.7;fontColor=#333333;fontStyle=4;align=left;spacing=3.8;verticalAlign=middle;strokeColor=#5e5e5e;strokeOpacity=100;rounded=1;absoluteArcSize=1;arcSize=9;strokeWidth=2.3;lucidId=jejBxBTFkY.N;" parent="1" vertex="1">
          <mxGeometry x="1025" y="-608" width="120" height="43" as="geometry" />
        </mxCell>
        <mxCell id="BRtx1PrN9E1ml90FHvNf-19" value="Extention" style="html=1;overflow=block;blockSpacing=1;whiteSpace=wrap;fontSize=16.7;fontColor=#333333;align=center;spacing=3.8;strokeColor=#5e5e5e;strokeOpacity=100;rounded=1;absoluteArcSize=1;arcSize=9;strokeWidth=2.3;lucidId=jejBH.42-18E;" parent="1" vertex="1">
          <mxGeometry x="1110" y="-930" width="120" height="27" as="geometry" />
        </mxCell>
        <mxCell id="BRtx1PrN9E1ml90FHvNf-20" value="-nameExt" style="html=1;overflow=block;blockSpacing=1;whiteSpace=wrap;fontSize=16.7;fontColor=#333333;fontStyle=4;align=left;spacing=3.8;verticalAlign=middle;strokeColor=#5e5e5e;strokeOpacity=100;rounded=1;absoluteArcSize=1;arcSize=9;strokeWidth=2.3;lucidId=jejBxBTFkY.N;" parent="1" vertex="1">
          <mxGeometry x="1110" y="-903" width="120" height="43" as="geometry" />
        </mxCell>
        <mxCell id="BRtx1PrN9E1ml90FHvNf-21" value="MimeType" style="html=1;overflow=block;blockSpacing=1;whiteSpace=wrap;fontSize=16.7;fontColor=#333333;align=center;spacing=3.8;strokeColor=#5e5e5e;strokeOpacity=100;rounded=1;absoluteArcSize=1;arcSize=9;strokeWidth=2.3;lucidId=jejBH.42-18E;" parent="1" vertex="1">
          <mxGeometry x="920" y="-930" width="120" height="27" as="geometry" />
        </mxCell>
        <mxCell id="BRtx1PrN9E1ml90FHvNf-22" value="-nameType" style="html=1;overflow=block;blockSpacing=1;whiteSpace=wrap;fontSize=16.7;fontColor=#333333;fontStyle=4;align=left;spacing=3.8;verticalAlign=middle;strokeColor=#5e5e5e;strokeOpacity=100;rounded=1;absoluteArcSize=1;arcSize=9;strokeWidth=2.3;lucidId=jejBxBTFkY.N;" parent="1" vertex="1">
          <mxGeometry x="920" y="-903" width="120" height="43" as="geometry" />
        </mxCell>
        <mxCell id="BRtx1PrN9E1ml90FHvNf-23" value="Software" style="html=1;overflow=block;blockSpacing=1;whiteSpace=wrap;fontSize=16.7;fontColor=#333333;align=center;spacing=3.8;strokeColor=#5e5e5e;strokeOpacity=100;rounded=1;absoluteArcSize=1;arcSize=9;strokeWidth=2.3;lucidId=jejBH.42-18E;" parent="1" vertex="1">
          <mxGeometry x="1290" y="-930" width="120" height="27" as="geometry" />
        </mxCell>
        <mxCell id="BRtx1PrN9E1ml90FHvNf-24" value="-nameSoft" style="html=1;overflow=block;blockSpacing=1;whiteSpace=wrap;fontSize=16.7;fontColor=#333333;fontStyle=4;align=left;spacing=3.8;verticalAlign=middle;strokeColor=#5e5e5e;strokeOpacity=100;rounded=1;absoluteArcSize=1;arcSize=9;strokeWidth=2.3;lucidId=jejBxBTFkY.N;" parent="1" vertex="1">
          <mxGeometry x="1290" y="-903" width="120" height="43" as="geometry" />
        </mxCell>
        <mxCell id="BRtx1PrN9E1ml90FHvNf-28" style="edgeStyle=orthogonalEdgeStyle;rounded=1;orthogonalLoop=1;jettySize=auto;html=1;exitX=0.5;exitY=1;exitDx=0;exitDy=0;entryX=0.5;entryY=0;entryDx=0;entryDy=0;strokeColor=#5E5E5E;strokeWidth=1.5;endArrow=none;endFill=0;" parent="1" source="BRtx1PrN9E1ml90FHvNf-25" target="BRtx1PrN9E1ml90FHvNf-14" edge="1">
          <mxGeometry relative="1" as="geometry" />
        </mxCell>
        <mxCell id="BRtx1PrN9E1ml90FHvNf-29" style="edgeStyle=orthogonalEdgeStyle;rounded=1;orthogonalLoop=1;jettySize=auto;html=1;exitX=0.5;exitY=0;exitDx=0;exitDy=0;entryX=0.5;entryY=1;entryDx=0;entryDy=0;strokeColor=#5E5E5E;strokeWidth=1.5;endArrow=none;endFill=0;" parent="1" source="BRtx1PrN9E1ml90FHvNf-25" target="BRtx1PrN9E1ml90FHvNf-20" edge="1">
          <mxGeometry relative="1" as="geometry" />
        </mxCell>
        <mxCell id="BRtx1PrN9E1ml90FHvNf-25" value="Has extentions" style="html=1;overflow=block;blockSpacing=1;whiteSpace=wrap;rounded=1;arcSize=50;fontSize=16.7;fontColor=#333333;align=center;spacing=3.8;strokeColor=#5e5e5e;strokeOpacity=100;strokeWidth=2.3;lucidId=xojB8fOaAYHN;" parent="1" vertex="1">
          <mxGeometry x="1110" y="-810" width="120" height="60" as="geometry" />
        </mxCell>
        <mxCell id="BRtx1PrN9E1ml90FHvNf-30" style="edgeStyle=orthogonalEdgeStyle;rounded=1;orthogonalLoop=1;jettySize=auto;html=1;exitX=0.5;exitY=0;exitDx=0;exitDy=0;entryX=0.5;entryY=1;entryDx=0;entryDy=0;strokeColor=#5E5E5E;strokeWidth=1.5;endArrow=none;endFill=0;" parent="1" source="BRtx1PrN9E1ml90FHvNf-26" target="BRtx1PrN9E1ml90FHvNf-24" edge="1">
          <mxGeometry relative="1" as="geometry" />
        </mxCell>
        <mxCell id="BRtx1PrN9E1ml90FHvNf-32" style="edgeStyle=orthogonalEdgeStyle;rounded=1;orthogonalLoop=1;jettySize=auto;html=1;exitX=0.5;exitY=1;exitDx=0;exitDy=0;entryX=0.5;entryY=0;entryDx=0;entryDy=0;strokeColor=#5E5E5E;strokeWidth=1.5;endArrow=none;endFill=0;" parent="1" source="BRtx1PrN9E1ml90FHvNf-26" target="BRtx1PrN9E1ml90FHvNf-14" edge="1">
          <mxGeometry relative="1" as="geometry" />
        </mxCell>
        <mxCell id="BRtx1PrN9E1ml90FHvNf-26" value="Can be opened by" style="html=1;overflow=block;blockSpacing=1;whiteSpace=wrap;rounded=1;arcSize=50;fontSize=16.7;fontColor=#333333;align=center;spacing=3.8;strokeColor=#5e5e5e;strokeOpacity=100;strokeWidth=2.3;lucidId=xojB8fOaAYHN;" parent="1" vertex="1">
          <mxGeometry x="1290" y="-810" width="120" height="60" as="geometry" />
        </mxCell>
        <mxCell id="BRtx1PrN9E1ml90FHvNf-31" style="edgeStyle=orthogonalEdgeStyle;rounded=1;orthogonalLoop=1;jettySize=auto;html=1;exitX=0.5;exitY=0;exitDx=0;exitDy=0;entryX=0.5;entryY=1;entryDx=0;entryDy=0;strokeColor=#5E5E5E;strokeWidth=1.5;endArrow=none;endFill=0;" parent="1" source="BRtx1PrN9E1ml90FHvNf-27" target="BRtx1PrN9E1ml90FHvNf-22" edge="1">
          <mxGeometry relative="1" as="geometry">
            <Array as="points">
              <mxPoint x="980" y="-830" />
              <mxPoint x="980" y="-830" />
            </Array>
          </mxGeometry>
        </mxCell>
        <mxCell id="BRtx1PrN9E1ml90FHvNf-33" style="edgeStyle=orthogonalEdgeStyle;rounded=1;orthogonalLoop=1;jettySize=auto;html=1;exitX=0.5;exitY=1;exitDx=0;exitDy=0;entryX=0.5;entryY=0;entryDx=0;entryDy=0;strokeColor=#5E5E5E;strokeWidth=1.5;endArrow=none;endFill=0;" parent="1" source="BRtx1PrN9E1ml90FHvNf-27" target="BRtx1PrN9E1ml90FHvNf-14" edge="1">
          <mxGeometry relative="1" as="geometry" />
        </mxCell>
        <mxCell id="BRtx1PrN9E1ml90FHvNf-27" value="Has MIME types" style="html=1;overflow=block;blockSpacing=1;whiteSpace=wrap;rounded=1;arcSize=50;fontSize=16.7;fontColor=#333333;align=center;spacing=3.8;strokeColor=#5e5e5e;strokeOpacity=100;strokeWidth=2.3;lucidId=xojB8fOaAYHN;" parent="1" vertex="1">
          <mxGeometry x="920" y="-810" width="120" height="60" as="geometry" />
        </mxCell>
        <mxCell id="BRtx1PrN9E1ml90FHvNf-34" value="0 , n" style="text;html=1;resizable=0;labelBackgroundColor=default;align=center;verticalAlign=middle;fontStyle=1;fontColor=#333333;fontSize=13.3;" parent="1" vertex="1">
          <mxGeometry x="1325" y="-740.0035294117649" as="geometry" />
        </mxCell>
        <mxCell id="BRtx1PrN9E1ml90FHvNf-35" value="0 , n" style="text;html=1;resizable=0;labelBackgroundColor=default;align=center;verticalAlign=middle;fontStyle=1;fontColor=#333333;fontSize=13.3;" parent="1" vertex="1">
          <mxGeometry x="900" y="-560.0035294117648" as="geometry">
            <mxPoint x="319" y="-178" as="offset" />
          </mxGeometry>
        </mxCell>
        <mxCell id="BRtx1PrN9E1ml90FHvNf-36" value="0 , n" style="text;html=1;resizable=0;labelBackgroundColor=default;align=center;verticalAlign=middle;fontStyle=1;fontColor=#333333;fontSize=13.3;" parent="1" vertex="1">
          <mxGeometry x="1145" y="-740.0035294117649" as="geometry" />
        </mxCell>
        <mxCell id="BRtx1PrN9E1ml90FHvNf-37" value="1, 1" style="text;html=1;resizable=0;labelBackgroundColor=default;align=center;verticalAlign=middle;fontStyle=1;fontColor=#333333;fontSize=13.3;" parent="1" vertex="1">
          <mxGeometry x="955.0000000000005" y="-780.0011764705882" as="geometry">
            <mxPoint x="9" y="-48" as="offset" />
          </mxGeometry>
        </mxCell>
        <mxCell id="BRtx1PrN9E1ml90FHvNf-38" value="1, 1" style="text;html=1;resizable=0;labelBackgroundColor=default;align=center;verticalAlign=middle;fontStyle=1;fontColor=#333333;fontSize=13.3;" parent="1" vertex="1">
          <mxGeometry x="1145.0000000000005" y="-830.0011764705882" as="geometry" />
        </mxCell>
        <mxCell id="BRtx1PrN9E1ml90FHvNf-39" value="1, 1" style="text;html=1;resizable=0;labelBackgroundColor=default;align=center;verticalAlign=middle;fontStyle=1;fontColor=#333333;fontSize=13.3;" parent="1" vertex="1">
          <mxGeometry x="1345.0000000000005" y="-820.0011764705882" as="geometry">
            <mxPoint x="-8" y="-11" as="offset" />
          </mxGeometry>
        </mxCell>
        <mxCell id="BRtx1PrN9E1ml90FHvNf-40" style="edgeStyle=orthogonalEdgeStyle;rounded=1;orthogonalLoop=1;jettySize=auto;html=1;exitX=0;exitY=0;exitDx=0;exitDy=0;strokeColor=#5E5E5E;strokeWidth=1.5;endArrow=none;endFill=0;" parent="1" source="BRtx1PrN9E1ml90FHvNf-38" target="BRtx1PrN9E1ml90FHvNf-38" edge="1">
          <mxGeometry relative="1" as="geometry" />
        </mxCell>
        <mxCell id="BRtx1PrN9E1ml90FHvNf-42" value="Has formats" style="html=1;overflow=block;blockSpacing=1;whiteSpace=wrap;rounded=1;arcSize=50;fontSize=16.7;fontColor=#333333;align=center;spacing=3.8;strokeColor=#5e5e5e;strokeOpacity=100;strokeWidth=2.3;lucidId=xojB8fOaAYHN;" parent="1" vertex="1">
          <mxGeometry x="1025" y="-480" width="120" height="60" as="geometry" />
        </mxCell>
        <mxCell id="BRtx1PrN9E1ml90FHvNf-45" value="SubscriptionType" style="html=1;overflow=block;blockSpacing=1;whiteSpace=wrap;fontSize=16.7;fontColor=#333333;align=center;spacing=3.8;strokeColor=#5e5e5e;strokeOpacity=100;rounded=1;absoluteArcSize=1;arcSize=9;strokeWidth=2.3;lucidId=NejBDIy_1vik;" parent="1" vertex="1">
          <mxGeometry x="2200" y="-162.5" width="210" height="27" as="geometry" />
        </mxCell>
        <mxCell id="BRtx1PrN9E1ml90FHvNf-46" value="&lt;div style=&quot;display: flex; justify-content: flex-start; text-align: left; align-items: baseline; font-size: 0; line-height: 1.25;margin-top: -2px;&quot;&gt;&lt;span&gt;&lt;span style=&quot;font-size:16.7px;color:#333333;text-decoration: underline;&quot;&gt;-name&lt;/span&gt;&lt;span style=&quot;font-size:16.7px;color:#333333;&quot;&gt;&lt;br&gt;&lt;/span&gt;&lt;/span&gt;&lt;/div&gt;&lt;div style=&quot;display: flex; justify-content: flex-start; text-align: left; align-items: baseline; font-size: 0; line-height: 1.25;margin-top: -2px;&quot;&gt;&lt;span&gt;&lt;span style=&quot;font-size:16.7px;color:#333333;&quot;&gt;&lt;span style=&quot;font-size:16.7px;color:#333333;&quot;&gt;-beginDate&lt;br&gt;&lt;/span&gt;&lt;/span&gt;&lt;/span&gt;&lt;/div&gt;&lt;div style=&quot;display: flex; justify-content: flex-start; text-align: left; align-items: baseline; font-size: 0; line-height: 1.25;margin-top: -2px;&quot;&gt;&lt;span&gt;&lt;span style=&quot;font-size:16.7px;color:#333333;&quot;&gt;-endDate&lt;br&gt;&lt;/span&gt;&lt;/span&gt;&lt;/div&gt;&lt;div style=&quot;display: flex; justify-content: flex-start; text-align: left; align-items: baseline; font-size: 0; line-height: 1.25;margin-top: -2px;&quot;&gt;&lt;span&gt;&lt;span style=&quot;font-size:16.7px;color:#333333;&quot;&gt;-price&lt;br&gt;&lt;/span&gt;&lt;/span&gt;&lt;/div&gt;&lt;div style=&quot;display: flex; justify-content: flex-start; text-align: left; align-items: baseline; font-size: 0; line-height: 1.25;margin-top: -2px;&quot;&gt;&lt;span&gt;&lt;span style=&quot;font-size:16.7px;color:#333333;&quot;&gt;-nbContent&lt;/span&gt;&lt;/span&gt;&lt;/div&gt;" style="html=1;overflow=block;blockSpacing=1;whiteSpace=wrap;fontSize=13;spacing=3.8;verticalAlign=middle;strokeColor=#5e5e5e;strokeOpacity=100;rounded=1;absoluteArcSize=1;arcSize=9;strokeWidth=2.3;lucidId=NejBXfe0f9c7;" parent="1" vertex="1">
          <mxGeometry x="2200" y="-135.5" width="210" height="123" as="geometry" />
        </mxCell>
        <mxCell id="BRtx1PrN9E1ml90FHvNf-49" style="edgeStyle=orthogonalEdgeStyle;rounded=1;orthogonalLoop=1;jettySize=auto;html=1;exitX=1;exitY=0.5;exitDx=0;exitDy=0;strokeColor=#5E5E5E;strokeWidth=1.5;endArrow=none;endFill=0;" parent="1" source="BRtx1PrN9E1ml90FHvNf-50" edge="1">
          <mxGeometry relative="1" as="geometry">
            <mxPoint x="1640" y="-43" as="targetPoint" />
          </mxGeometry>
        </mxCell>
        <mxCell id="BRtx1PrN9E1ml90FHvNf-54" style="edgeStyle=orthogonalEdgeStyle;rounded=1;orthogonalLoop=1;jettySize=auto;html=1;exitX=0;exitY=0.5;exitDx=0;exitDy=0;strokeColor=#5E5E5E;strokeWidth=1.5;endArrow=none;endFill=0;entryX=1;entryY=0.5;entryDx=0;entryDy=0;" parent="1" source="BRtx1PrN9E1ml90FHvNf-50" target="OtvRLSTqSI0YJR0zDPqX-5" edge="1">
          <mxGeometry relative="1" as="geometry">
            <mxPoint x="893" y="-136" as="targetPoint" />
            <Array as="points">
              <mxPoint x="1370" y="-46" />
              <mxPoint x="1240" y="-46" />
              <mxPoint x="1240" y="-150" />
              <mxPoint x="863" y="-150" />
            </Array>
          </mxGeometry>
        </mxCell>
        <mxCell id="BRtx1PrN9E1ml90FHvNf-50" value="Rate" style="html=1;overflow=block;blockSpacing=1;whiteSpace=wrap;rounded=1;arcSize=50;fontSize=16.7;fontColor=#333333;align=center;spacing=3.8;strokeColor=#5e5e5e;strokeOpacity=100;strokeWidth=2.3;lucidId=xojB8fOaAYHN;" parent="1" vertex="1">
          <mxGeometry x="1370" y="-73" width="120" height="60" as="geometry" />
        </mxCell>
        <mxCell id="BRtx1PrN9E1ml90FHvNf-57" style="edgeStyle=orthogonalEdgeStyle;rounded=1;orthogonalLoop=1;jettySize=auto;html=1;exitX=1;exitY=0.5;exitDx=0;exitDy=0;entryX=-0.002;entryY=0.403;entryDx=0;entryDy=0;entryPerimeter=0;strokeColor=#5E5E5E;strokeWidth=1.5;endArrow=none;endFill=0;" parent="1" source="BRtx1PrN9E1ml90FHvNf-56" target="BRtx1PrN9E1ml90FHvNf-46" edge="1">
          <mxGeometry relative="1" as="geometry" />
        </mxCell>
        <mxCell id="BRtx1PrN9E1ml90FHvNf-56" value="Has or has been subscripted" style="html=1;overflow=block;blockSpacing=1;whiteSpace=wrap;rounded=1;arcSize=50;fontSize=16.7;fontColor=#333333;align=center;spacing=3.8;strokeColor=#5e5e5e;strokeOpacity=100;strokeWidth=2.3;lucidId=xojB8fOaAYHN;" parent="1" vertex="1">
          <mxGeometry x="1960" y="-122" width="120" height="73" as="geometry" />
        </mxCell>
        <mxCell id="BRtx1PrN9E1ml90FHvNf-58" value="0 , n" style="text;html=1;resizable=0;labelBackgroundColor=default;align=center;verticalAlign=middle;fontStyle=1;fontColor=#333333;fontSize=13.3;" parent="1" vertex="1">
          <mxGeometry x="1290" y="-437.0035294117649" as="geometry">
            <mxPoint x="652" y="344" as="offset" />
          </mxGeometry>
        </mxCell>
        <mxCell id="BRtx1PrN9E1ml90FHvNf-59" value="0 , n" style="text;html=1;resizable=0;labelBackgroundColor=default;align=center;verticalAlign=middle;fontStyle=1;fontColor=#333333;fontSize=13.3;" parent="1" vertex="1">
          <mxGeometry x="2100" y="-102.00352941176487" as="geometry" />
        </mxCell>
        <mxCell id="BRtx1PrN9E1ml90FHvNf-65" style="edgeStyle=orthogonalEdgeStyle;rounded=1;orthogonalLoop=1;jettySize=auto;html=1;exitX=1;exitY=0.5;exitDx=0;exitDy=0;entryX=0.5;entryY=1;entryDx=0;entryDy=0;strokeColor=#5E5E5E;strokeWidth=1.5;endArrow=none;endFill=0;" parent="1" source="BRtx1PrN9E1ml90FHvNf-64" target="BRtx1PrN9E1ml90FHvNf-46" edge="1">
          <mxGeometry relative="1" as="geometry" />
        </mxCell>
        <mxCell id="BRtx1PrN9E1ml90FHvNf-68" style="edgeStyle=orthogonalEdgeStyle;rounded=1;orthogonalLoop=1;jettySize=auto;html=1;exitX=0;exitY=0.5;exitDx=0;exitDy=0;entryX=1;entryY=0.75;entryDx=0;entryDy=0;strokeColor=#5E5E5E;strokeWidth=1.5;endArrow=none;endFill=0;" parent="1" source="BRtx1PrN9E1ml90FHvNf-64" target="BRtx1PrN9E1ml90FHvNf-67" edge="1">
          <mxGeometry relative="1" as="geometry" />
        </mxCell>
        <mxCell id="BRtx1PrN9E1ml90FHvNf-64" value="Has a rent duration depending of the subscription type" style="html=1;overflow=block;blockSpacing=1;whiteSpace=wrap;rounded=1;arcSize=50;fontSize=16.7;fontColor=#333333;align=center;spacing=3.8;strokeColor=#5e5e5e;strokeOpacity=100;strokeWidth=2.3;lucidId=xojB8fOaAYHN;" parent="1" vertex="1">
          <mxGeometry x="1960" y="165" width="160" height="106" as="geometry" />
        </mxCell>
        <mxCell id="BRtx1PrN9E1ml90FHvNf-66" value="ContentType" style="html=1;overflow=block;blockSpacing=1;whiteSpace=wrap;fontSize=16.7;fontColor=#333333;align=center;spacing=3.8;strokeColor=#5e5e5e;strokeOpacity=100;rounded=1;absoluteArcSize=1;arcSize=9;strokeWidth=2.3;lucidId=NejBDIy_1vik;" parent="1" vertex="1">
          <mxGeometry x="935" y="204" width="210" height="27" as="geometry" />
        </mxCell>
        <mxCell id="BRtx1PrN9E1ml90FHvNf-67" value="&lt;div style=&quot;display: flex; justify-content: flex-start; text-align: left; align-items: baseline; line-height: 1.25; margin-top: -2px;&quot;&gt;&lt;font color=&quot;#333333&quot;&gt;&lt;span style=&quot;font-size: 16.7px;&quot;&gt;&lt;u&gt;-name&lt;/u&gt;&lt;/span&gt;&lt;/font&gt;&lt;/div&gt;" style="html=1;overflow=block;blockSpacing=1;whiteSpace=wrap;fontSize=13;spacing=3.8;verticalAlign=middle;strokeColor=#5e5e5e;strokeOpacity=100;rounded=1;absoluteArcSize=1;arcSize=9;strokeWidth=2.3;lucidId=NejBXfe0f9c7;" parent="1" vertex="1">
          <mxGeometry x="935" y="231" width="210" height="35" as="geometry" />
        </mxCell>
        <mxCell id="BRtx1PrN9E1ml90FHvNf-71" style="edgeStyle=orthogonalEdgeStyle;rounded=1;orthogonalLoop=1;jettySize=auto;html=1;entryX=0.5;entryY=0;entryDx=0;entryDy=0;strokeColor=#5E5E5E;strokeWidth=1.5;endArrow=none;endFill=0;exitX=0.5;exitY=1;exitDx=0;exitDy=0;" parent="1" source="BRtx1PrN9E1ml90FHvNf-70" target="BRtx1PrN9E1ml90FHvNf-66" edge="1">
          <mxGeometry relative="1" as="geometry">
            <mxPoint x="1100" y="130" as="sourcePoint" />
          </mxGeometry>
        </mxCell>
        <mxCell id="BRtx1PrN9E1ml90FHvNf-72" style="edgeStyle=orthogonalEdgeStyle;rounded=1;orthogonalLoop=1;jettySize=auto;html=1;exitX=0.5;exitY=0;exitDx=0;exitDy=0;entryX=1;entryY=0.75;entryDx=0;entryDy=0;strokeColor=#5E5E5E;strokeWidth=1.5;endArrow=none;endFill=0;" parent="1" source="BRtx1PrN9E1ml90FHvNf-70" target="OtvRLSTqSI0YJR0zDPqX-5" edge="1">
          <mxGeometry relative="1" as="geometry" />
        </mxCell>
        <mxCell id="BRtx1PrN9E1ml90FHvNf-70" value="Has a type" style="html=1;overflow=block;blockSpacing=1;whiteSpace=wrap;rounded=1;arcSize=50;fontSize=16.7;fontColor=#333333;align=center;spacing=3.8;strokeColor=#5e5e5e;strokeOpacity=100;strokeWidth=2.3;lucidId=xojB8fOaAYHN;" parent="1" vertex="1">
          <mxGeometry x="980" width="120" height="60" as="geometry" />
        </mxCell>
        <mxCell id="BRtx1PrN9E1ml90FHvNf-73" value="1, 1" style="text;html=1;resizable=0;labelBackgroundColor=default;align=center;verticalAlign=middle;fontStyle=1;fontColor=#333333;fontSize=13.3;" parent="1" vertex="1">
          <mxGeometry x="330" y="-161.50000000000045" as="geometry">
            <mxPoint x="725" y="148" as="offset" />
          </mxGeometry>
        </mxCell>
        <mxCell id="BRtx1PrN9E1ml90FHvNf-74" value="0, n" style="text;html=1;resizable=0;labelBackgroundColor=default;align=center;verticalAlign=middle;fontStyle=1;fontColor=#333333;fontSize=13.3;" parent="1" vertex="1">
          <mxGeometry x="1039.9999999999995" y="86" as="geometry">
            <mxPoint x="20" y="-14" as="offset" />
          </mxGeometry>
        </mxCell>
        <mxCell id="BRtx1PrN9E1ml90FHvNf-78" value="0, n" style="text;html=1;resizable=0;labelBackgroundColor=default;align=center;verticalAlign=middle;fontStyle=1;fontColor=#333333;fontSize=13.3;" parent="1" vertex="1">
          <mxGeometry x="886.0047826086956" y="119" as="geometry">
            <mxPoint x="-46" y="-17" as="offset" />
          </mxGeometry>
        </mxCell>
        <mxCell id="BRtx1PrN9E1ml90FHvNf-79" value="Adress" style="html=1;overflow=block;blockSpacing=1;whiteSpace=wrap;fontSize=16.7;fontColor=#333333;align=center;spacing=3.8;strokeColor=#5e5e5e;strokeOpacity=100;rounded=1;absoluteArcSize=1;arcSize=9;strokeWidth=2.3;lucidId=NejBDIy_1vik;" parent="1" vertex="1">
          <mxGeometry x="1750" y="-557" width="210" height="27" as="geometry" />
        </mxCell>
        <mxCell id="BRtx1PrN9E1ml90FHvNf-80" value="&lt;div style=&quot;display: flex; justify-content: flex-start; text-align: left; align-items: baseline; font-size: 0; line-height: 1.25;margin-top: -2px;&quot;&gt;&lt;span&gt;&lt;span style=&quot;font-size: 16.7px; color: rgb(51, 51, 51);&quot;&gt;&lt;u&gt;-id&lt;/u&gt;&lt;br&gt;-number&lt;br&gt;-city&lt;br&gt;-postalCode&lt;br&gt;-detail&lt;br&gt;-street&lt;/span&gt;&lt;/span&gt;&lt;span&gt;&lt;span style=&quot;font-size: 16.7px; color: rgb(51, 51, 51);&quot;&gt;&lt;br&gt;&lt;/span&gt;&lt;/span&gt;&lt;span&gt;&lt;span style=&quot;font-size: 16.7px; color: rgb(51, 51, 51);&quot;&gt;&lt;br&gt;&lt;/span&gt;&lt;/span&gt;&lt;span&gt;&lt;span style=&quot;font-size:16.7px;color:#333333;text-decoration: underline;&quot;&gt;&lt;br&gt;&lt;/span&gt;&lt;/span&gt;&lt;/div&gt;" style="html=1;overflow=block;blockSpacing=1;whiteSpace=wrap;fontSize=13;spacing=3.8;verticalAlign=middle;strokeColor=#5e5e5e;strokeOpacity=100;rounded=1;absoluteArcSize=1;arcSize=9;strokeWidth=2.3;lucidId=NejBXfe0f9c7;" parent="1" vertex="1">
          <mxGeometry x="1750" y="-530" width="210" height="130" as="geometry" />
        </mxCell>
        <mxCell id="BRtx1PrN9E1ml90FHvNf-84" style="edgeStyle=orthogonalEdgeStyle;rounded=1;orthogonalLoop=1;jettySize=auto;html=1;exitX=0.5;exitY=0;exitDx=0;exitDy=0;entryX=0.369;entryY=1.02;entryDx=0;entryDy=0;strokeColor=#5E5E5E;strokeWidth=1.5;endArrow=none;endFill=0;entryPerimeter=0;" parent="1" source="BRtx1PrN9E1ml90FHvNf-82" target="BRtx1PrN9E1ml90FHvNf-80" edge="1">
          <mxGeometry relative="1" as="geometry" />
        </mxCell>
        <mxCell id="BRtx1PrN9E1ml90FHvNf-82" value="Has addresses" style="html=1;overflow=block;blockSpacing=1;whiteSpace=wrap;rounded=1;arcSize=50;fontSize=16.7;fontColor=#333333;align=center;spacing=3.8;strokeColor=#5e5e5e;strokeOpacity=100;strokeWidth=2.3;lucidId=xojB8fOaAYHN;" parent="1" vertex="1">
          <mxGeometry x="1768" y="-343" width="120" height="60" as="geometry" />
        </mxCell>
        <mxCell id="BRtx1PrN9E1ml90FHvNf-85" value="0 , n" style="text;html=1;resizable=0;labelBackgroundColor=default;align=center;verticalAlign=middle;fontStyle=1;fontColor=#333333;fontSize=13.3;" parent="1" vertex="1">
          <mxGeometry x="1850" y="-263.0035294117649" as="geometry" />
        </mxCell>
        <mxCell id="BRtx1PrN9E1ml90FHvNf-86" value="0 , n" style="text;html=1;resizable=0;labelBackgroundColor=default;align=center;verticalAlign=middle;fontStyle=1;fontColor=#333333;fontSize=13.3;" parent="1" vertex="1">
          <mxGeometry x="1855" y="-363.0035294117649" as="geometry" />
        </mxCell>
        <mxCell id="BRtx1PrN9E1ml90FHvNf-88" value="People" style="html=1;overflow=block;blockSpacing=1;whiteSpace=wrap;fontSize=16.7;fontColor=#333333;align=center;spacing=3.8;strokeColor=#5e5e5e;strokeOpacity=100;rounded=1;absoluteArcSize=1;arcSize=9;strokeWidth=2.3;lucidId=NejBDIy_1vik;" parent="1" vertex="1">
          <mxGeometry x="-240" y="-312" width="210" height="27" as="geometry" />
        </mxCell>
        <mxCell id="BRtx1PrN9E1ml90FHvNf-89" value="&lt;div style=&quot;display: flex; justify-content: flex-start; text-align: left; align-items: baseline; font-size: 0; line-height: 1.25;margin-top: -2px;&quot;&gt;&lt;span&gt;&lt;span style=&quot;font-size:16.7px;color:#333333;text-decoration: underline;&quot;&gt;-idPers&lt;/span&gt;&lt;span style=&quot;font-size:16.7px;color:#333333;&quot;&gt;&lt;br&gt;&lt;/span&gt;&lt;/span&gt;&lt;/div&gt;&lt;div style=&quot;display: flex; justify-content: flex-start; text-align: left; align-items: baseline; font-size: 0; line-height: 1.25;margin-top: -2px;&quot;&gt;&lt;span&gt;&lt;span style=&quot;font-size:16.7px;color:#333333;&quot;&gt;&lt;span style=&quot;font-size:16.7px;color:#333333;&quot;&gt;-lname&lt;br&gt;&lt;/span&gt;&lt;/span&gt;&lt;/span&gt;&lt;/div&gt;&lt;div style=&quot;display: flex; justify-content: flex-start; text-align: left; align-items: baseline; font-size: 0; line-height: 1.25;margin-top: -2px;&quot;&gt;&lt;span&gt;&lt;span style=&quot;font-size:16.7px;color:#333333;&quot;&gt;-fname&lt;br&gt;&lt;/span&gt;&lt;/span&gt;&lt;/div&gt;&lt;div style=&quot;display: flex; justify-content: flex-start; text-align: left; align-items: baseline; font-size: 0; line-height: 1.25;margin-top: -2px;&quot;&gt;&lt;span&gt;&lt;span style=&quot;font-size:16.7px;color:#333333;&quot;&gt;-birthdate&lt;/span&gt;&lt;/span&gt;&lt;/div&gt;" style="html=1;overflow=block;blockSpacing=1;whiteSpace=wrap;fontSize=13;spacing=3.8;verticalAlign=middle;strokeColor=#5e5e5e;strokeOpacity=100;rounded=1;absoluteArcSize=1;arcSize=9;strokeWidth=2.3;lucidId=NejBXfe0f9c7;" parent="1" vertex="1">
          <mxGeometry x="-240" y="-285" width="210" height="95.5" as="geometry" />
        </mxCell>
        <mxCell id="BRtx1PrN9E1ml90FHvNf-90" value="0, n" style="text;html=1;resizable=0;labelBackgroundColor=default;align=center;verticalAlign=middle;fontStyle=1;fontColor=#333333;fontSize=13.3;" parent="1" vertex="1">
          <mxGeometry x="149.99894638846254" y="-371.9999456244857" as="geometry" />
        </mxCell>
        <mxCell id="BRtx1PrN9E1ml90FHvNf-92" value="0, n" style="text;html=1;resizable=0;labelBackgroundColor=default;align=center;verticalAlign=middle;fontStyle=1;fontColor=#333333;fontSize=13.3;" parent="1" vertex="1">
          <mxGeometry x="159.99578947368417" y="-121.9973684210525" as="geometry" />
        </mxCell>
        <mxCell id="BRtx1PrN9E1ml90FHvNf-94" value="0, n" style="text;html=1;resizable=0;labelBackgroundColor=default;align=center;verticalAlign=middle;fontStyle=1;fontColor=#333333;fontSize=13.3;" parent="1" vertex="1">
          <mxGeometry x="317.3657894736842" y="-51.9973684210525" as="geometry">
            <mxPoint x="-6" y="3" as="offset" />
          </mxGeometry>
        </mxCell>
        <mxCell id="BRtx1PrN9E1ml90FHvNf-99" style="edgeStyle=orthogonalEdgeStyle;rounded=1;orthogonalLoop=1;jettySize=auto;html=1;exitX=1;exitY=0.5;exitDx=0;exitDy=0;strokeColor=#5E5E5E;strokeWidth=1.5;endArrow=none;endFill=0;" parent="1" source="BRtx1PrN9E1ml90FHvNf-95" edge="1">
          <mxGeometry relative="1" as="geometry">
            <mxPoint x="851" y="-70" as="targetPoint" />
            <Array as="points">
              <mxPoint x="851" y="88" />
              <mxPoint x="851" y="-70" />
            </Array>
          </mxGeometry>
        </mxCell>
        <mxCell id="7" style="edgeStyle=orthogonalEdgeStyle;rounded=1;orthogonalLoop=1;jettySize=auto;html=1;exitX=0;exitY=0.5;exitDx=0;exitDy=0;endArrow=none;endFill=0;strokeColor=#5E5E5E;" parent="1" source="BRtx1PrN9E1ml90FHvNf-95" edge="1">
          <mxGeometry relative="1" as="geometry">
            <mxPoint x="671" y="-70" as="targetPoint" />
            <Array as="points">
              <mxPoint x="671" y="88" />
            </Array>
          </mxGeometry>
        </mxCell>
        <mxCell id="BRtx1PrN9E1ml90FHvNf-95" value="Has seasons" style="html=1;overflow=block;blockSpacing=1;whiteSpace=wrap;rounded=1;arcSize=50;fontSize=16.7;fontColor=#333333;align=center;spacing=3.8;strokeColor=#5e5e5e;strokeOpacity=100;strokeWidth=2.3;lucidId=RvjBVbc6lFcZ;" parent="1" vertex="1">
          <mxGeometry x="706" y="59" width="120" height="60" as="geometry" />
        </mxCell>
        <mxCell id="BRtx1PrN9E1ml90FHvNf-106" value="0, n" style="text;html=1;resizable=0;labelBackgroundColor=default;align=center;verticalAlign=middle;fontStyle=1;fontColor=#333333;fontSize=13.3;" parent="1" vertex="1">
          <mxGeometry x="179.99521732751572" y="-237.25" as="geometry">
            <mxPoint x="-17" y="-20" as="offset" />
          </mxGeometry>
        </mxCell>
        <mxCell id="BRtx1PrN9E1ml90FHvNf-107" value="0, n" style="text;html=1;resizable=0;labelBackgroundColor=default;align=center;verticalAlign=middle;fontStyle=1;fontColor=#333333;fontSize=13.3;" parent="1" vertex="1">
          <mxGeometry x="329.9952173275157" y="58" as="geometry">
            <mxPoint x="-17" y="-20" as="offset" />
          </mxGeometry>
        </mxCell>
        <mxCell id="BRtx1PrN9E1ml90FHvNf-108" value="1, 1" style="text;html=1;resizable=0;labelBackgroundColor=default;align=center;verticalAlign=middle;fontStyle=1;fontColor=#333333;fontSize=13.3;" parent="1" vertex="1">
          <mxGeometry x="1065" y="-400" as="geometry">
            <mxPoint x="-12" as="offset" />
          </mxGeometry>
        </mxCell>
        <mxCell id="BRtx1PrN9E1ml90FHvNf-109" value="0 , n" style="text;html=1;resizable=0;labelBackgroundColor=default;align=center;verticalAlign=middle;fontStyle=1;fontColor=#333333;fontSize=13.3;" parent="1" vertex="1">
          <mxGeometry x="1065" y="-504.9957142857142" as="geometry" />
        </mxCell>
        <mxCell id="BRtx1PrN9E1ml90FHvNf-110" value="0, n" style="text;html=1;resizable=0;labelBackgroundColor=default;align=center;verticalAlign=middle;fontStyle=1;fontColor=#333333;fontSize=13.3;" parent="1" vertex="1">
          <mxGeometry x="1329.9999999999995" y="37" as="geometry" />
        </mxCell>
        <mxCell id="BRtx1PrN9E1ml90FHvNf-111" value="0, n" style="text;html=1;resizable=0;labelBackgroundColor=default;align=center;verticalAlign=middle;fontStyle=1;fontColor=#333333;fontSize=13.3;" parent="1" vertex="1">
          <mxGeometry x="1353.9999999999995" y="-117" as="geometry">
            <mxPoint x="-7" y="-20" as="offset" />
          </mxGeometry>
        </mxCell>
        <mxCell id="BRtx1PrN9E1ml90FHvNf-112" value="0, n" style="text;html=1;resizable=0;labelBackgroundColor=default;align=center;verticalAlign=middle;fontStyle=1;fontColor=#333333;fontSize=13.3;" parent="1" vertex="1">
          <mxGeometry x="1353.9999999999995" y="-13" as="geometry">
            <mxPoint x="-7" y="-20" as="offset" />
          </mxGeometry>
        </mxCell>
        <mxCell id="BRtx1PrN9E1ml90FHvNf-113" value="0, n" style="text;html=1;resizable=0;labelBackgroundColor=default;align=center;verticalAlign=middle;fontStyle=1;fontColor=#333333;fontSize=13.3;" parent="1" vertex="1">
          <mxGeometry x="1529.9999999999995" y="67" as="geometry">
            <mxPoint x="-2" y="2" as="offset" />
          </mxGeometry>
        </mxCell>
        <mxCell id="BRtx1PrN9E1ml90FHvNf-114" value="0, n" style="text;html=1;resizable=0;labelBackgroundColor=default;align=center;verticalAlign=middle;fontStyle=1;fontColor=#333333;fontSize=13.3;" parent="1" vertex="1">
          <mxGeometry x="1504.9999999999995" y="-33" as="geometry" />
        </mxCell>
        <mxCell id="BRtx1PrN9E1ml90FHvNf-115" value="0, n" style="text;html=1;resizable=0;labelBackgroundColor=default;align=center;verticalAlign=middle;fontStyle=1;fontColor=#333333;fontSize=13.3;" parent="1" vertex="1">
          <mxGeometry x="1509.9999999999995" y="-132" as="geometry" />
        </mxCell>
        <mxCell id="BRtx1PrN9E1ml90FHvNf-116" value="0, n" style="text;html=1;resizable=0;labelBackgroundColor=default;align=center;verticalAlign=middle;fontStyle=1;fontColor=#333333;fontSize=13.3;" parent="1" vertex="1">
          <mxGeometry x="1929.9999999999995" y="207" as="geometry" />
        </mxCell>
        <mxCell id="BRtx1PrN9E1ml90FHvNf-117" value="0, n" style="text;html=1;resizable=0;labelBackgroundColor=default;align=center;verticalAlign=middle;fontStyle=1;fontColor=#333333;fontSize=13.3;" parent="1" vertex="1">
          <mxGeometry x="2139.9999999999995" y="207" as="geometry" />
        </mxCell>
        <mxCell id="aYg_YmNZubYNtw0hlJet-2" value="0, n" style="text;html=1;resizable=0;labelBackgroundColor=default;align=center;verticalAlign=middle;fontStyle=1;fontColor=#333333;fontSize=13.3;" parent="1" vertex="1">
          <mxGeometry x="740.0047826086956" y="119" as="geometry">
            <mxPoint x="-46" y="-17" as="offset" />
          </mxGeometry>
        </mxCell>
        <mxCell id="2" value="Has key words" style="html=1;overflow=block;blockSpacing=1;whiteSpace=wrap;rounded=1;arcSize=50;fontSize=16.7;fontColor=#333333;align=center;spacing=3.8;strokeColor=#5e5e5e;strokeOpacity=100;strokeWidth=2.3;lucidId=xojB8fOaAYHN;" parent="1" vertex="1">
          <mxGeometry x="826" y="-521.5" width="120" height="60" as="geometry" />
        </mxCell>
        <mxCell id="3" value="0, n" style="text;html=1;resizable=0;labelBackgroundColor=default;align=center;verticalAlign=middle;fontStyle=1;fontColor=#333333;fontSize=13.3;" parent="1" vertex="1">
          <mxGeometry x="885.9285714285716" y="-429.7857142857142" as="geometry">
            <mxPoint x="18" y="-16" as="offset" />
          </mxGeometry>
        </mxCell>
        <mxCell id="4" value="0 , n" style="text;html=1;resizable=0;labelBackgroundColor=default;align=center;verticalAlign=middle;fontStyle=1;fontColor=#333333;fontSize=13.3;" parent="1" vertex="1">
          <mxGeometry x="885.9285714285716" y="-543.3571428571427" as="geometry">
            <mxPoint x="20" y="6" as="offset" />
          </mxGeometry>
        </mxCell>
      </root>
    </mxGraphModel>
  </diagram>
</mxfile>
